<svg width="500" height="300" viewBox="0 0 500 300" fill="none" xmlns="http://www.w3.org/2000/svg">
<rect x="133.343" y="172" width="166.392" height="166.392" transform="rotate(-45 133.343 172)" fill="#E7F2E7" stroke="#137713" stroke-width="8"/>
<g filter="url(#filter0_i_1_2)">
<path d="M186.342 180V178.743C187.771 178.636 188.679 178.442 189.065 178.163C189.463 177.873 189.662 177.384 189.662 176.697V160.6C189.662 159.944 189.484 159.477 189.13 159.198C188.775 158.918 187.846 158.65 186.342 158.392V157.135H198.75C204.647 157.135 207.596 158.827 207.596 162.211C207.596 164.832 205.582 166.615 201.553 167.561V167.851C203.841 168.119 205.625 168.774 206.903 169.816C208.192 170.858 208.836 172.185 208.836 173.796C208.836 175.902 208.004 177.465 206.339 178.485C204.674 179.495 201.967 180 198.218 180H186.342ZM195.414 158.682V167.125H196.236C199.62 167.125 201.312 165.632 201.312 162.646C201.312 159.96 199.883 158.618 197.025 158.618C196.338 158.618 195.801 158.639 195.414 158.682ZM195.414 168.753V177.1C195.414 177.368 195.656 177.674 196.139 178.018C196.623 178.351 197.294 178.518 198.153 178.518C199.453 178.518 200.49 178.077 201.263 177.196C202.047 176.315 202.439 175.118 202.439 173.603C202.439 170.327 200.613 168.688 196.961 168.688C196.188 168.688 195.672 168.71 195.414 168.753ZM232.765 180H211.318V178.743C212.661 178.636 213.547 178.458 213.977 178.211C214.417 177.954 214.637 177.459 214.637 176.729V160.6C214.637 159.923 214.417 159.434 213.977 159.133C213.536 158.833 212.65 158.585 211.318 158.392V157.135H231.572V162.968H230.348C230.025 162.066 229.515 161.217 228.817 160.422C228.119 159.617 227.49 159.112 226.932 158.908C226.384 158.693 225.304 158.585 223.693 158.585H220.39V167.432H222.726C224.004 167.432 224.944 167.131 225.546 166.529C226.147 165.928 226.593 164.907 226.883 163.468H228.108V173.007H226.883C226.529 171.31 226.062 170.198 225.481 169.671C224.901 169.145 223.983 168.882 222.726 168.882H220.39V175.472C220.39 176.654 220.562 177.465 220.905 177.905C221.249 178.335 222.318 178.55 224.112 178.55C225.648 178.55 226.76 178.485 227.447 178.356C228.135 178.217 228.64 178.018 228.962 177.76C229.295 177.502 229.827 176.772 230.557 175.569C231.298 174.366 231.782 173.469 232.007 172.878H233.184L232.765 180ZM261.398 158.392C261.269 158.414 261.086 158.435 260.85 158.457C259.668 158.596 258.809 158.951 258.272 159.52C257.735 160.089 257.466 161.513 257.466 163.79V180.129H254.63L240.37 162.437V173.168C240.37 175.273 240.612 176.659 241.095 177.325C241.589 177.98 242.69 178.453 244.398 178.743V180H234.569V178.743C236.245 178.55 237.309 178.152 237.76 177.551C238.222 176.938 238.453 175.542 238.453 173.361V162.549C238.453 160.283 237.126 158.908 234.473 158.424V157.135H243.077L255.581 172.604V163.967C255.581 161.873 255.334 160.492 254.84 159.826C254.346 159.149 253.255 158.671 251.569 158.392V157.135H261.398V158.392ZM280.46 158.392C279.053 158.575 278.177 158.779 277.833 159.004C277.5 159.23 277.334 159.708 277.334 160.438V173.039C277.334 175.316 276.501 177.153 274.836 178.55C273.182 179.936 271.12 180.628 268.649 180.628C266.64 180.628 265.018 180.134 263.783 179.146C262.558 178.158 261.946 176.836 261.946 175.182C261.946 174.183 262.23 173.356 262.8 172.701C263.38 172.045 264.153 171.718 265.12 171.718C266.098 171.718 266.85 171.992 267.376 172.54C267.913 173.077 268.182 173.748 268.182 174.554C268.182 175.51 267.655 176.45 266.603 177.374C266.323 177.621 266.071 177.857 265.845 178.083V178.324C266.114 178.829 266.651 179.082 267.457 179.082C268.767 179.082 269.782 178.598 270.502 177.631C271.222 176.654 271.582 175.279 271.582 173.506V160.6C271.582 159.901 271.361 159.413 270.921 159.133C270.48 158.843 269.594 158.596 268.262 158.392V157.135H280.46V158.392ZM293.818 180V178.743C295.966 178.55 297.041 178.244 297.041 177.825C297.041 177.61 296.987 177.368 296.879 177.1L294.93 172.346H287.05C285.965 174.946 285.423 176.605 285.423 177.325C285.423 178.045 286.556 178.518 288.823 178.743V180H279.461V178.743C280.406 178.679 281.18 178.475 281.781 178.131C282.394 177.787 282.823 177.395 283.07 176.955C283.317 176.503 284.333 174.113 286.116 169.784L291.465 156.797H294.704L301.423 173.49C302.326 175.746 302.89 177.03 303.115 177.341C303.352 177.642 303.706 177.932 304.179 178.211C304.662 178.48 305.366 178.657 306.29 178.743V180H293.818ZM290.934 162.485L287.679 170.767H294.269L290.934 162.485ZM309.077 178.872L307.965 180H306.612L306.37 171.75H307.772C309.749 176.573 312.386 178.985 315.684 178.985C317.091 178.985 318.197 178.641 319.003 177.954C319.809 177.255 320.211 176.342 320.211 175.214C320.211 173.528 318.858 172.25 316.151 171.379C313.412 170.542 311.537 169.875 310.527 169.381C309.518 168.876 308.669 168.103 307.981 167.061C307.305 166.008 306.966 164.789 306.966 163.403C306.966 161.491 307.761 159.869 309.351 158.537C310.941 157.205 313.02 156.539 315.587 156.539C317.735 156.539 319.792 157.055 321.758 158.086L322.741 157.135H324.127L324.272 164.918H322.87C321.946 162.437 320.958 160.686 319.905 159.665C318.853 158.634 317.601 158.118 316.151 158.118C315.001 158.118 314.051 158.446 313.299 159.101C312.558 159.756 312.187 160.573 312.187 161.55C312.187 162.313 312.456 163.011 312.993 163.645C313.541 164.268 314.985 164.956 317.327 165.708C319.615 166.459 321.248 167.093 322.226 167.609C323.203 168.125 323.998 168.871 324.61 169.849C325.233 170.815 325.545 171.976 325.545 173.329C325.545 175.435 324.669 177.18 322.918 178.566C321.178 179.941 318.89 180.628 316.054 180.628C313.659 180.628 311.333 180.043 309.077 178.872Z" fill="#2E882E"/>
</g>
<path d="M87.066 184H411.934L418 204.5L411.934 225H87.066L81 204.5L87.066 184Z" fill="#199019"/>
<path d="M142.126 208.48C140.501 211.824 137.856 213.495 134.191 213.495C131.458 213.495 129.206 212.64 127.438 210.931C125.669 209.213 124.784 206.957 124.784 204.164C124.784 201.32 125.707 199.001 127.552 197.207C129.397 195.413 131.733 194.516 134.56 194.516C136.312 194.516 137.915 194.905 139.371 195.684L140.146 194.985H141.237L141.364 201.562H140.247C139.621 199.564 138.863 198.096 137.975 197.156C137.086 196.208 135.998 195.734 134.712 195.734C133.146 195.734 131.94 196.416 131.094 197.778C130.247 199.132 129.824 201.121 129.824 203.745C129.824 206.352 130.302 208.332 131.259 209.687C132.224 211.032 133.582 211.705 135.334 211.705C137.594 211.705 139.494 210.41 141.034 207.82L142.126 208.48ZM153.044 213.495C150.319 213.495 148.025 212.623 146.163 210.88C144.301 209.128 143.37 206.898 143.37 204.189C143.37 201.312 144.293 198.976 146.138 197.182C147.983 195.387 150.31 194.49 153.12 194.49C155.888 194.49 158.202 195.362 160.064 197.105C161.935 198.849 162.87 201.104 162.87 203.872C162.87 206.674 161.973 208.98 160.179 210.791C158.393 212.594 156.015 213.495 153.044 213.495ZM153.12 195.734C151.605 195.734 150.446 196.45 149.642 197.88C148.838 199.31 148.436 201.367 148.436 204.05C148.436 206.665 148.838 208.688 149.642 210.118C150.446 211.54 151.605 212.251 153.12 212.251C154.652 212.251 155.812 211.536 156.599 210.105C157.394 208.667 157.792 206.614 157.792 203.948C157.792 201.333 157.394 199.31 156.599 197.88C155.803 196.45 154.644 195.734 153.12 195.734ZM174.372 213.495C171.647 213.495 169.353 212.623 167.491 210.88C165.629 209.128 164.698 206.898 164.698 204.189C164.698 201.312 165.621 198.976 167.466 197.182C169.311 195.387 171.638 194.49 174.448 194.49C177.216 194.49 179.531 195.362 181.393 197.105C183.263 198.849 184.198 201.104 184.198 203.872C184.198 206.674 183.301 208.98 181.507 210.791C179.721 212.594 177.343 213.495 174.372 213.495ZM174.448 195.734C172.933 195.734 171.774 196.45 170.97 197.88C170.166 199.31 169.764 201.367 169.764 204.05C169.764 206.665 170.166 208.688 170.97 210.118C171.774 211.54 172.933 212.251 174.448 212.251C175.98 212.251 177.14 211.536 177.927 210.105C178.722 208.667 179.12 206.614 179.12 203.948C179.12 201.333 178.722 199.31 177.927 197.88C177.131 196.45 175.972 195.734 174.448 195.734ZM200.017 213C198.764 211.02 196.69 208.248 193.796 204.685H193.148V210.347C193.148 210.77 193.271 211.117 193.517 211.388C193.771 211.659 194.443 211.866 195.535 212.01V213H185.976V212.01C187.245 211.959 188.003 211.798 188.248 211.527C188.493 211.257 188.616 210.905 188.616 210.474V197.715C188.616 197.122 188.4 196.716 187.969 196.496C187.546 196.276 187.017 196.119 186.382 196.026L185.976 195.976V194.985H195.853V195.976C195.734 195.993 195.594 196.009 195.434 196.026C194.46 196.128 193.834 196.285 193.555 196.496C193.284 196.699 193.148 197.063 193.148 197.588V203.669H193.669C197.875 199.818 199.979 197.414 199.979 196.458C199.979 196.229 199.365 196.069 198.138 195.976V194.985H205.958V195.976C204.697 196.103 203.652 196.395 202.822 196.852C202.001 197.3 200.11 199.052 197.147 202.107L203.686 210.131C204.659 211.316 205.818 211.942 207.164 212.01V213H200.017ZM207.164 213V212.01C208.493 211.959 209.28 211.798 209.525 211.527C209.779 211.257 209.906 210.905 209.906 210.474V197.715C209.906 197.292 209.779 196.945 209.525 196.674C209.271 196.403 208.484 196.17 207.164 195.976V194.985H217.155V195.976C217.037 195.993 216.893 196.009 216.724 196.026C215.742 196.128 215.111 196.28 214.832 196.483C214.561 196.678 214.426 197.046 214.426 197.588V210.347C214.426 210.804 214.57 211.168 214.857 211.438C215.145 211.701 215.911 211.891 217.155 212.01V213H207.164ZM239.55 195.976C239.448 195.993 239.304 196.009 239.118 196.026C238.187 196.136 237.51 196.416 237.087 196.864C236.664 197.313 236.452 198.434 236.452 200.229V213.102H234.218L222.982 199.162V207.617C222.982 209.276 223.173 210.368 223.554 210.893C223.943 211.409 224.811 211.781 226.156 212.01V213H218.412V212.01C219.732 211.857 220.57 211.544 220.926 211.07C221.29 210.588 221.472 209.488 221.472 207.77V199.251C221.472 197.465 220.426 196.382 218.336 196.001V194.985H225.115L234.967 207.173V200.368C234.967 198.718 234.772 197.63 234.383 197.105C233.993 196.572 233.134 196.196 231.806 195.976V194.985H239.55V195.976ZM260.713 205.662C259.587 205.814 258.919 206.026 258.707 206.297C258.495 206.568 258.39 206.902 258.39 207.3V209.407C258.39 210.059 258.407 210.719 258.44 211.388C257.518 211.938 256.223 212.429 254.556 212.86C252.897 213.284 251.42 213.495 250.125 213.495C247.357 213.495 245.093 212.653 243.333 210.969C241.573 209.276 240.692 207.008 240.692 204.164C240.692 201.278 241.602 198.951 243.422 197.182C245.242 195.404 247.658 194.516 250.671 194.516C252.423 194.516 254.086 194.905 255.66 195.684L256.473 194.985H257.564L257.666 201.562H256.574C255.939 199.615 255.165 198.159 254.251 197.194C253.345 196.221 252.211 195.734 250.849 195.734C249.241 195.734 247.988 196.441 247.091 197.854C246.202 199.259 245.758 201.223 245.758 203.745C245.758 206.428 246.194 208.514 247.065 210.004C247.946 211.485 249.173 212.226 250.747 212.226C252.084 212.226 253.193 211.849 254.073 211.096V207.439C254.073 206.982 253.925 206.623 253.629 206.36C253.333 206.09 252.571 205.857 251.344 205.662V204.685H260.713V205.662ZM263.709 212.111L262.833 213H261.767L261.576 206.5H262.681C264.238 210.3 266.316 212.2 268.914 212.2C270.023 212.2 270.895 211.929 271.529 211.388C272.164 210.838 272.481 210.118 272.481 209.229C272.481 207.901 271.415 206.894 269.282 206.208C267.124 205.548 265.647 205.023 264.852 204.634C264.056 204.236 263.387 203.627 262.846 202.806C262.312 201.976 262.046 201.016 262.046 199.924C262.046 198.417 262.672 197.139 263.925 196.09C265.177 195.04 266.815 194.516 268.838 194.516C270.531 194.516 272.151 194.922 273.7 195.734L274.475 194.985H275.566L275.681 201.117H274.576C273.848 199.162 273.07 197.783 272.24 196.979C271.411 196.166 270.425 195.76 269.282 195.76C268.377 195.76 267.628 196.018 267.035 196.534C266.451 197.05 266.159 197.694 266.159 198.464C266.159 199.065 266.371 199.615 266.794 200.114C267.226 200.605 268.364 201.147 270.209 201.739C272.012 202.332 273.298 202.831 274.068 203.237C274.839 203.644 275.465 204.232 275.947 205.002C276.438 205.764 276.684 206.678 276.684 207.744C276.684 209.403 275.994 210.778 274.614 211.87C273.243 212.953 271.44 213.495 269.206 213.495C267.319 213.495 265.486 213.034 263.709 212.111ZM294.305 200.127C293.941 199.137 293.501 198.282 292.984 197.562C292.468 196.843 292.028 196.424 291.664 196.306C291.3 196.187 290.551 196.128 289.417 196.128H288.82V210.245C288.82 210.821 288.994 211.223 289.341 211.451C289.688 211.671 290.433 211.857 291.575 212.01V213H281.533V212.01C282.676 211.925 283.421 211.785 283.768 211.591C284.115 211.388 284.288 210.981 284.288 210.372V196.128H283.717C282.54 196.128 281.77 196.191 281.406 196.318C281.051 196.437 280.615 196.873 280.099 197.626C279.582 198.379 279.151 199.213 278.804 200.127H277.813V194.985H295.295V200.127H294.305ZM305.286 213V212.01C306.979 211.857 307.825 211.616 307.825 211.286C307.825 211.117 307.783 210.926 307.698 210.715L306.162 206.97H299.954C299.099 209.018 298.672 210.326 298.672 210.893C298.672 211.46 299.565 211.832 301.351 212.01V213H293.975V212.01C294.719 211.959 295.329 211.798 295.803 211.527C296.285 211.257 296.624 210.948 296.818 210.601C297.013 210.245 297.813 208.362 299.218 204.951L303.433 194.719H305.984L311.278 207.871C311.989 209.648 312.434 210.66 312.611 210.905C312.798 211.142 313.077 211.371 313.449 211.591C313.83 211.802 314.384 211.942 315.112 212.01V213H305.286ZM303.014 199.2L300.449 205.726H305.642L303.014 199.2ZM330.232 200.127C329.868 199.137 329.428 198.282 328.912 197.562C328.396 196.843 327.956 196.424 327.592 196.306C327.228 196.187 326.479 196.128 325.345 196.128H324.748V210.245C324.748 210.821 324.922 211.223 325.269 211.451C325.616 211.671 326.36 211.857 327.503 212.01V213H317.461V212.01C318.604 211.925 319.348 211.785 319.695 211.591C320.042 211.388 320.216 210.981 320.216 210.372V196.128H319.645C318.468 196.128 317.698 196.191 317.334 196.318C316.979 196.437 316.543 196.873 316.026 197.626C315.51 198.379 315.078 199.213 314.731 200.127H313.741V194.985H331.223V200.127H330.232ZM332.188 213V212.01C333.516 211.959 334.303 211.798 334.549 211.527C334.803 211.257 334.93 210.905 334.93 210.474V197.715C334.93 197.292 334.803 196.945 334.549 196.674C334.295 196.403 333.508 196.17 332.188 195.976V194.985H342.179V195.976C342.06 195.993 341.916 196.009 341.747 196.026C340.765 196.128 340.135 196.28 339.855 196.483C339.585 196.678 339.449 197.046 339.449 197.588V210.347C339.449 210.804 339.593 211.168 339.881 211.438C340.169 211.701 340.935 211.891 342.179 212.01V213H332.188ZM353.579 213.495C350.854 213.495 348.56 212.623 346.698 210.88C344.836 209.128 343.905 206.898 343.905 204.189C343.905 201.312 344.828 198.976 346.673 197.182C348.518 195.387 350.845 194.49 353.655 194.49C356.423 194.49 358.738 195.362 360.6 197.105C362.47 198.849 363.405 201.104 363.405 203.872C363.405 206.674 362.508 208.98 360.714 210.791C358.928 212.594 356.55 213.495 353.579 213.495ZM353.655 195.734C352.14 195.734 350.981 196.45 350.177 197.88C349.373 199.31 348.971 201.367 348.971 204.05C348.971 206.665 349.373 208.688 350.177 210.118C350.981 211.54 352.14 212.251 353.655 212.251C355.187 212.251 356.347 211.536 357.134 210.105C357.929 208.667 358.327 206.614 358.327 203.948C358.327 201.333 357.929 199.31 357.134 197.88C356.338 196.45 355.179 195.734 353.655 195.734ZM385.901 195.976C385.8 195.993 385.656 196.009 385.47 196.026C384.539 196.136 383.862 196.416 383.438 196.864C383.015 197.313 382.804 198.434 382.804 200.229V213.102H380.569L369.334 199.162V207.617C369.334 209.276 369.524 210.368 369.905 210.893C370.295 211.409 371.162 211.781 372.508 212.01V213H364.764V212.01C366.084 211.857 366.922 211.544 367.277 211.07C367.641 210.588 367.823 209.488 367.823 207.77V199.251C367.823 197.465 366.778 196.382 364.688 196.001V194.985H371.467L381.318 207.173V200.368C381.318 198.718 381.124 197.63 380.734 197.105C380.345 196.572 379.486 196.196 378.157 195.976V194.985H385.901V195.976Z" fill="black"/>
<path fill-rule="evenodd" clip-rule="evenodd" d="M189.891 125.529H209.203C210.891 125.529 212.336 127.226 212.875 129.594H228.719L228.125 124.687C227.992 123.588 228.453 122.538 229.156 122.331C229.234 122.306 229.312 122.294 229.391 122.294H280.703C281.414 122.294 282 123.197 282 124.32C282 124.552 281.977 124.772 281.93 124.979L279.828 137.406C279.227 140.983 278.211 144.352 276.687 146.72C275.312 148.869 273.547 150.211 271.344 150.211H238.141C235.891 150.211 234.031 148.832 232.602 146.598C231.078 144.218 230.07 140.873 229.641 137.26L229.203 133.646H212.875C212.336 136.002 210.891 137.711 209.203 137.711H189.891C187.758 137.699 186 134.965 186 131.62C186 128.275 187.75 125.529 189.891 125.529ZM267.633 92.3623C268.141 91.5688 268.961 91.5688 269.461 92.3623C269.961 93.1558 269.969 94.4375 269.461 95.2187C268.227 97.1475 268.789 98.7954 269.445 100.712C270.547 103.935 271.82 107.633 269.664 113.456C269.305 114.42 268.516 114.75 267.898 114.188C267.281 113.627 267.07 112.394 267.43 111.43C268.859 107.548 267.961 104.911 267.172 102.604C266.031 99.2837 265.047 96.415 267.633 92.3623ZM258.008 92.3623C258.516 91.5688 259.336 91.5688 259.836 92.3623C260.336 93.1558 260.344 94.4375 259.836 95.2187C258.602 97.1475 259.164 98.7954 259.82 100.712C260.922 103.935 262.195 107.633 260.039 113.456C259.68 114.42 258.891 114.75 258.273 114.188C257.656 113.627 257.445 112.394 257.805 111.43C259.234 107.548 258.336 104.911 257.547 102.604C256.406 99.2837 255.422 96.415 258.008 92.3623ZM248.391 92.3623C248.898 91.5688 249.719 91.5688 250.219 92.3623C250.727 93.1558 250.727 94.4375 250.219 95.2187C248.984 97.1475 249.547 98.7954 250.203 100.712C251.305 103.935 252.578 107.633 250.422 113.456C250.062 114.42 249.273 114.75 248.656 114.188C248.039 113.627 247.828 112.394 248.187 111.43C249.617 107.548 248.719 104.911 247.93 102.604C246.781 99.2837 245.797 96.415 248.391 92.3623ZM238.766 92.3623C239.273 91.5688 240.094 91.5688 240.594 92.3623C241.102 93.1558 241.102 94.4375 240.594 95.2187C239.359 97.1475 239.922 98.7954 240.578 100.712C241.68 103.935 242.953 107.633 240.797 113.456C240.437 114.42 239.648 114.75 239.031 114.188C238.414 113.627 238.203 112.394 238.562 111.43C239.992 107.548 239.094 104.911 238.305 102.604C237.164 99.2837 236.18 96.415 238.766 92.3623ZM277.336 136.369L279.031 126.334H230.953L232.18 136.515C232.523 139.347 233.289 141.947 234.437 143.742C235.398 145.243 236.648 146.171 238.148 146.171H271.352C272.797 146.171 273.953 145.28 274.867 143.864C276.039 142.021 276.844 139.311 277.336 136.369Z" fill="black"/>
<defs>
<filter id="filter0_i_1_2" x="186.342" y="156.539" width="139.203" height="28.0894" filterUnits="userSpaceOnUse" color-interpolation-filters="sRGB">
<feFlood flood-opacity="0" result="BackgroundImageFix"/>
<feBlend mode="normal" in="SourceGraphic" in2="BackgroundImageFix" result="shape"/>
<feColorMatrix in="SourceAlpha" type="matrix" values="0 0 0 0 0 0 0 0 0 0 0 0 0 0 0 0 0 0 127 0" result="hardAlpha"/>
<feOffset dy="4"/>
<feGaussianBlur stdDeviation="2"/>
<feComposite in2="hardAlpha" operator="arithmetic" k2="-1" k3="1"/>
<feColorMatrix type="matrix" values="0 0 0 0 0 0 0 0 0 0 0 0 0 0 0 0 0 0 0.25 0"/>
<feBlend mode="normal" in2="shape" result="effect1_innerShadow_1_2"/>
</filter>
</defs>
</svg>
